<svg xmlns="http://www.w3.org/2000/svg" viewBox="0 0 22 24">
    <path fill="#fd7a10" stroke="rgba(255, 255, 255, 0.03)" stroke-linecap="round" stroke-linejoin="round" stroke-width="1.4"
          d="M9.91 23c-1.3 0-2.5-.21-3.59-.64A8.3 8.3 0 0 1 3.5 20.6a8.08 8.08 0 0 1-1.84-2.71 8.77 8.77 0 0 1-.41-5.4 16.55 16.55 0 0 1 1.11-3.07l.3-.55a.54.54 0 0 1 .29-.28.75.75 0 0 1 .39-.07.67.67 0 0 1 .58.5c.02.01.12.32.3.92.2.6.42 1.13.7 1.58.2.3.4.56.6.77.19.22.4.4.6.54-.14-.63-.24-1.4-.32-2.3a10.49 10.49 0 0 1 .18-2.82 8.58 8.58 0 0 1 3-5.32 6.51 6.51 0 0 1 2.4-1.36.7.7 0 0 1 .35 0 .95.95 0 0 1 .32.15.73.73 0 0 1 .19.3.62.62 0 0 1 .01.35l-.09.64c-.05.43-.08.99-.07 1.66a15.4 15.4 0 0 0 .2 2.24 9.61 9.61 0 0 0 .74 2.43 10.27 10.27 0 0 0 .54.97 14.65 14.65 0 0 1 .28-1.44c.26-.95.65-1.6 1.18-1.98l.83-.58a.62.62 0 0 1 .7.08.65.65 0 0 1 .26.67 5.05 5.05 0 0 0 .9 3.16c.5.82.83 1.57 1.01 2.23.18.67.27 1.52.27 2.55 0 1.24-.23 2.38-.68 3.43a8.12 8.12 0 0 1-1.9 2.7 8.65 8.65 0 0 1-2.86 1.79c-1.1.42-2.32.63-3.65.63z"></path>
</svg>